<?xml version="1.0" standalone="no"?>
<!DOCTYPE svg PUBLIC "-//W3C//DTD SVG 20010904//EN"
 "http://www.w3.org/TR/2001/REC-SVG-20010904/DTD/svg10.dtd">
<svg version="1.0" xmlns="http://www.w3.org/2000/svg"
 width="260.000000pt" height="280.000000pt" viewBox="0 0 260.000000 280.000000"
 preserveAspectRatio="xMidYMid meet">
<metadata>
Created by potrace 1.10, written by Peter Selinger 2001-2011
</metadata>
<g transform="translate(0.000000,280.000000) scale(0.100000,-0.100000)"
fill="#000000" stroke="none">
<path d="M1364 2590 c-12 -4 -24 -15 -27 -24 -8 -20 0 -20 20 -1 20 20 37 14
41 -13 2 -12 8 -22 13 -22 6 0 9 -12 7 -26 -4 -32 -42 -62 -54 -43 -5 8 -3 9
6 4 8 -5 11 -4 6 3 -4 6 -13 9 -21 5 -17 -6 -21 12 -5 22 6 3 10 12 10 18 0 7
-4 6 -10 -3 -8 -12 -10 -12 -16 3 -8 22 -24 12 -24 -16 0 -30 29 -70 46 -63 8
3 14 -1 14 -8 0 -25 24 -23 52 3 20 18 30 40 34 73 6 41 4 49 -19 72 -28 27
-39 30 -73 16z"/>
<path d="M1610 2325 c22 -27 94 -80 84 -63 -9 16 -82 78 -92 78 -2 0 1 -7 8
-15z"/>
<path d="M1180 2260 c-160 -16 -200 -33 -236 -103 -21 -40 -43 -166 -44 -249
0 -57 4 -71 24 -95 l24 -28 174 2 c194 1 275 13 319 44 59 42 91 149 93 307 1
128 -4 133 -163 131 -64 -1 -150 -5 -191 -9z m303 -33 c14 -9 17 -23 13 -62
-2 -28 -4 -56 -5 -62 -1 -7 -11 -13 -23 -13 -17 0 -19 3 -10 9 10 6 8 10 -10
14 -38 11 -78 8 -79 -5 0 -10 -2 -10 -5 -1 -7 16 -64 -35 -64 -56 0 -14 2 -14
10 -1 6 9 10 10 10 3 0 -6 -10 -19 -22 -27 -19 -14 -20 -16 -4 -16 10 0 16 -5
13 -12 -2 -7 0 -21 5 -31 9 -18 -4 -54 -19 -50 -4 2 -23 -2 -41 -8 -37 -12
-134 -3 -113 11 10 6 10 9 1 15 -6 4 -16 3 -22 -3 -12 -12 -38 -5 -38 10 0 6
6 5 15 -2 9 -8 15 -9 15 -2 0 20 -19 23 -44 7 -19 -13 -29 -14 -45 -5 -28 15
-54 56 -45 71 5 8 3 10 -7 4 -8 -4 3 9 24 29 21 21 36 41 32 44 -3 4 -15 -4
-25 -18 -16 -21 -20 -22 -34 -11 -15 13 -15 16 0 38 8 14 13 27 10 30 -10 10
15 45 29 39 9 -3 12 0 8 9 -3 9 2 17 13 21 11 3 28 10 39 15 11 5 29 9 40 8
11 0 74 4 140 9 178 13 219 13 238 -1z m-33 -152 c16 -20 31 -77 18 -69 -7 5
-9 -2 -4 -19 3 -15 1 -29 -5 -32 -6 -4 -8 -14 -4 -22 4 -13 3 -14 -9 -3 -14
11 -14 14 -1 27 23 22 18 25 -10 7 -16 -11 -34 -14 -53 -10 -15 4 -32 7 -38 8
-6 1 -10 25 -10 59 0 32 2 56 5 54 4 -2 17 2 30 9 26 15 65 10 81 -9z m-485
-95 c-3 -5 -1 -10 5 -10 6 0 8 -4 5 -10 -3 -5 -1 -10 5 -10 7 0 8 -6 1 -19
-12 -22 -5 -31 25 -31 13 0 40 -10 60 -22 30 -18 52 -22 120 -22 74 0 91 4
144 32 33 17 60 26 60 20 0 -6 10 -3 23 8 22 19 22 19 5 -2 -10 -11 -18 -26
-18 -32 0 -6 -24 -22 -54 -37 -106 -52 -280 -44 -330 16 -21 24 -26 26 -36 14
-7 -8 -8 -15 -3 -15 5 0 10 -7 10 -15 0 -8 -7 -15 -14 -15 -8 0 -11 5 -7 12 5
8 2 9 -9 5 -10 -3 -17 -3 -17 2 0 5 -3 23 -7 41 -4 22 -3 31 5 27 6 -5 8 0 5
12 -5 18 12 61 23 61 3 0 2 -4 -1 -10z"/>
<path d="M1040 2096 c0 -8 9 -18 20 -21 27 -9 61 -45 53 -58 -3 -6 -1 -7 4 -4
17 11 22 57 7 58 -8 1 -18 3 -24 4 -5 1 -17 3 -25 4 -8 0 -15 6 -15 12 0 7 10
9 25 7 13 -3 22 -1 19 3 -9 15 -64 10 -64 -5z"/>
<path d="M1720 2243 c0 -5 9 -18 19 -27 11 -10 23 -36 26 -58 4 -21 9 -37 12
-35 11 11 -11 81 -33 104 -13 14 -24 21 -24 16z"/>
<path d="M1728 2088 c-19 -35 -16 -189 4 -220 16 -24 15 -28 -18 -96 -34 -71
-77 -116 -138 -146 -17 -9 -24 -15 -16 -15 54 0 168 123 185 198 6 27 11 30
47 33 67 5 101 70 88 170 -9 66 -40 98 -96 98 -34 0 -46 -5 -56 -22z m66 -57
c-8 -66 -8 -64 1 -118 6 -37 5 -43 -9 -43 -17 0 -41 18 -44 33 -12 76 -13 102
-8 132 8 41 31 66 52 58 12 -4 14 -16 8 -62z m58 12 c9 -36 8 -128 -1 -142 -8
-12 -12 -12 -24 -3 -16 13 -18 126 -3 150 10 17 23 15 28 -5z"/>
<path d="M1794 1787 c-54 -111 -99 -171 -121 -162 -8 2 -12 1 -9 -4 6 -9 -36
-31 -59 -31 -8 0 -15 -5 -15 -11 0 -5 -4 -8 -8 -5 -4 2 -14 1 -20 -3 -7 -4
-52 0 -101 9 -104 20 -256 27 -246 10 3 -6 11 -8 16 -5 5 4 15 3 22 -2 8 -5 2
-10 -18 -14 -16 -4 24 -7 90 -8 66 -1 140 -6 165 -11 27 -5 49 -5 55 1 5 5 22
9 37 9 39 0 97 26 131 58 42 40 89 118 94 157 5 41 2 44 -13 12z"/>
<path d="M860 1723 c0 -23 148 -117 224 -143 39 -13 39 -13 15 -25 -21 -12
-18 -13 26 -8 28 2 54 6 59 7 15 4 15 34 -1 40 -7 3 -11 2 -8 -4 6 -10 -50 -5
-101 9 -32 9 -193 107 -206 126 -5 7 -8 6 -8 -2z"/>
<path d="M1524 1446 c-27 -19 -35 -58 -22 -103 11 -40 21 -45 96 -47 l57 -1 3
-41 3 -41 75 -22 c73 -21 87 -34 62 -59 -10 -10 -10 -17 0 -32 17 -28 15 -53
-10 -104 -13 -28 -30 -47 -45 -51 -13 -3 -23 -9 -23 -14 0 -5 -9 -7 -19 -4
-13 3 -21 -2 -26 -17 -4 -12 -18 -26 -31 -32 -27 -12 -32 -28 -10 -28 8 0 22
10 30 22 14 19 16 20 22 4 10 -26 -3 -101 -25 -144 -23 -44 -56 -77 -93 -91
-25 -9 -28 -8 -28 10 0 11 12 32 28 46 l27 26 -25 -8 c-33 -10 -40 -22 -40
-67 0 -34 3 -38 24 -38 89 0 176 111 161 207 -7 47 10 108 26 97 29 -18 66 24
102 114 17 43 17 45 -8 99 -14 30 -22 59 -19 64 3 5 0 9 -6 9 -7 0 -11 19 -10
53 3 90 1 95 -46 139 -54 51 -65 56 -147 63 -47 5 -67 3 -83 -9z m20 -28 c-9
-29 -9 -36 0 -73 7 -27 6 -28 -8 -15 -23 23 -28 71 -9 92 21 24 26 23 17 -4z
m80 -20 c-8 -16 -12 -38 -9 -49 6 -18 4 -20 -15 -14 -15 5 -20 4 -16 -4 5 -7
1 -9 -9 -5 -19 8 -29 46 -21 79 6 22 12 25 46 23 l39 -1 -15 -29z m90 -2 l35
-23 -41 -27 c-36 -24 -43 -25 -50 -11 -5 8 -13 13 -19 10 -12 -8 -12 32 1 56
14 25 32 24 74 -5z m49 -66 c-13 -5 -23 -12 -23 -15 0 -4 4 -3 10 0 6 3 7 -1
4 -9 -3 -9 -9 -14 -13 -11 -4 2 -8 -2 -8 -10 0 -8 4 -15 8 -15 4 0 5 -8 2 -19
-3 -13 2 -20 18 -24 39 -10 13 -19 -35 -12 l-46 7 0 44 c0 37 4 46 28 58 15 8
38 15 52 15 25 0 25 0 3 -9z"/>
<path d="M918 1408 c-33 -12 -33 -13 -8 -77 14 -36 16 -52 8 -57 -7 -5 -9 -2
-4 7 4 8 1 5 -8 -5 -17 -20 -20 -19 -74 28 l-24 21 39 33 c21 19 29 29 18 24
-41 -20 -116 -109 -115 -137 1 -5 10 7 21 28 17 32 22 36 39 27 10 -6 21 -14
24 -18 9 -15 -20 -39 -55 -46 -46 -8 -94 -71 -92 -119 2 -51 48 -143 82 -163
33 -19 40 -37 31 -74 -14 -54 26 -135 70 -140 44 -6 60 0 60 24 0 34 -10 56
-26 56 -7 0 -18 9 -24 19 -17 33 -11 72 15 103 28 33 32 58 10 58 -18 0 -22
75 -4 85 20 13 59 -5 74 -35 19 -37 19 -120 0 -146 -13 -17 -14 -14 -14 41 1
64 -13 115 -31 115 -7 0 -8 -5 -3 -12 13 -22 15 -41 14 -105 -2 -60 -1 -63 29
-78 30 -15 30 -15 40 10 6 15 10 44 10 66 0 39 13 52 23 25 14 -37 66 -48 236
-53 91 -2 167 -6 169 -8 3 -2 -2 -19 -11 -37 -25 -55 -30 -111 -13 -152 18
-42 34 -45 65 -12 20 21 21 27 9 46 -10 18 -10 24 0 27 6 3 12 14 12 25 0 11
13 33 29 48 22 22 26 32 17 39 -23 20 -70 -43 -76 -101 -4 -38 -11 -54 -27
-66 -23 -14 -23 -14 -23 40 0 30 3 58 7 62 4 3 8 16 10 29 5 30 43 84 70 98
13 7 23 17 23 22 0 9 -67 -37 -83 -57 -5 -6 -6 2 -4 19 4 25 3 27 -7 13 -11
-15 -32 -16 -177 -12 -139 3 -168 7 -189 22 -35 26 -85 97 -115 162 -15 30
-38 67 -51 82 l-26 26 34 24 c30 21 33 27 30 66 -2 23 -7 40 -12 37 -5 -3 -7
-13 -4 -23 3 -9 -2 -6 -10 8 -22 35 -20 49 9 60 14 5 25 12 25 15 0 7 -10 5
-42 -7z m-32 -183 c1 -8 -3 -15 -9 -15 -9 0 -9 -2 -1 -8 6 -4 17 -18 24 -31 8
-16 15 -20 19 -12 5 8 11 3 19 -13 9 -20 8 -24 -2 -20 -7 3 -25 0 -40 -6 -20
-7 -25 -7 -20 2 10 17 -58 4 -90 -17 -29 -19 -36 -51 -10 -41 14 6 15 4 4 -9
-8 -9 -16 -12 -19 -6 -4 5 -15 9 -25 8 -16 -2 -19 6 -21 55 -1 51 2 61 26 84
17 16 34 24 43 21 15 -6 56 27 56 45 0 15 44 -20 46 -37z m-13 -145 c12 -46
-27 -140 -58 -140 -19 0 -48 37 -39 52 34 60 69 108 80 108 6 0 14 -9 17 -20z
m-31 -170 c-6 -45 5 -75 33 -88 17 -8 25 -19 25 -38 0 -16 -5 -24 -12 -21 -7
2 -12 10 -10 16 1 7 -6 11 -15 9 -13 -2 -17 2 -15 16 3 16 1 18 -10 8 -12 -9
-15 -9 -15 3 0 8 4 12 9 9 4 -3 8 0 8 5 0 6 -5 11 -12 11 -6 0 -9 3 -5 6 3 3
2 16 -3 29 -6 16 -4 29 6 44 20 28 21 27 16 -9z"/>
<path d="M1566 1248 c-9 -34 -7 -68 3 -68 8 0 21 47 21 76 0 22 -17 16 -24 -8z"/>
<path d="M1619 1186 c-27 -24 -54 -65 -47 -72 2 -2 25 16 50 40 26 24 44 47
41 50 -10 10 -16 7 -44 -18z"/>
<path d="M1557 1006 c37 -31 113 -69 121 -61 4 4 -2 11 -12 17 -10 6 -27 19
-37 29 -11 11 -19 16 -19 13 0 -4 -7 -1 -15 6 -8 7 -15 9 -15 4 0 -4 -5 -3
-12 4 -7 7 -18 12 -26 12 -7 0 -1 -11 15 -24z"/>
<path d="M1626 824 c-3 -9 -6 -29 -6 -44 0 -16 -4 -32 -10 -35 -12 -8 -13 -25
-1 -25 10 0 21 31 27 83 5 39 1 48 -10 21z"/>
</g>
</svg>
